<svg width="512" height="512" viewBox="0 0 512 512" fill="none" xmlns="http://www.w3.org/2000/svg">
  <style>
    path {
      stroke: black;
    }

    @media (prefers-color-scheme: dark) {
      path {
        stroke: white;
      }
    }
  </style>
  <path
    d="M354.878 413.7H350.937C317.828 413.7 301.274 413.7 288.628 407.257C277.505 401.589 268.461 392.545 262.793 381.422C256.35 368.776 256.35 352.222 256.35 319.113V192.998C256.35 159.889 256.35 143.335 262.793 130.689C268.461 119.566 277.505 110.522 288.628 104.854C301.274 98.4111 317.828 98.4111 350.937 98.4111H354.878M354.878 413.7C354.878 435.466 372.523 453.111 394.289 453.111C416.055 453.111 433.7 435.466 433.7 413.7C433.7 391.934 416.055 374.289 394.289 374.289C372.523 374.289 354.878 391.934 354.878 413.7ZM354.878 98.4111C354.878 120.177 372.523 137.822 394.289 137.822C416.055 137.822 433.7 120.177 433.7 98.4111C433.7 76.645 416.055 59 394.289 59C372.523 59 354.878 76.645 354.878 98.4111ZM157.822 256.056L354.878 256.056M157.822 256.056C157.822 277.822 140.177 295.467 118.411 295.467C96.645 295.467 79 277.822 79 256.056C79 234.289 96.645 216.644 118.411 216.644C140.177 216.644 157.822 234.289 157.822 256.056ZM354.878 256.056C354.878 277.822 372.523 295.467 394.289 295.467C416.055 295.467 433.7 277.822 433.7 256.056C433.7 234.289 416.055 216.644 394.289 216.644C372.523 216.644 354.878 234.289 354.878 256.056Z"
    stroke="black" stroke-width="39.4111" stroke-linecap="round" stroke-linejoin="round" />
</svg>